/* XPM */
static char * basket1 [] = {
"51 44 5 1",
" 	s None	c None",
".	c gray100",
"X	c black",
"o	c brown",
"O	c gray75",
"              ................                     ",
"              .XXXXXXXXXXXXXX..............        ",
"              ...............XXXXXXXXXXXXX.        ",
"        ...................................        ",
"        .XXXXXXXXXXXXXXXXXXXXXXXXXXXXXX.           ",
"        ................................           ",
"          .XXXXXXXXXXXXXXXXXXXXXXXXXX.             ",
"          ............................             ",
"        ..............................             ",
"        .XXXXXXXXXXXXXX...............             ",
"        ...............XXXXXXXXXXXXXX.             ",
"             ..............................        ",
"             .XXXXXXXXXXXXXXXXXXXXXXXXXXXX.        ",
"         ..................................        ",
"         .XXXXXXXXXXXXXXXXXXXXXXXXX.               ",
"         ...........................               ",
"       ....................................        ",
"       .XXXXXXXXXXXXXXXXXXXXXXXXXXXXXXXXXX.        ",
"       .....................................       ",
"          .................XXXXXXXXXXXXXXXX.       ",
"          .XXXXXXXXXXXXXXXX.................       ",
"         ..............................            ",
"         .XXXXXXXXXXXXXXXXXXXXXXXXXXXX.            ",
"         ..............................            ",
"       ...................................         ",
"       .XXXXXXXXXXXXXXXXXXXXXXXXXXXXXXXXX.         ",
"       ...................................         ",
"        .XXXXXXXXXXXXXXXXX..................       ",
"        ..................XXXXXXXXXXXXXXXXX.       ",
"  ...............................................  ",
"  .ooooooooooooooooooooooooooooooooooooooooooooo.  ",
"  .ooooooooooooooooooooooooooooooooooooooooooooo.  ",
"  ..ooOOOOOoOOOOOOoOOOOOOoOOOOOOoOOOOOOoOOOOOoo..  ",
"   .ooOOOOOoOOOOOOOoOOOOOoOOOOOoOOOOOOoOOOOOOoo.   ",
"   ..ooooooooooooooooooooooooooooooooooooooooo..   ",
"    ..ooOOOOoOOOOOOoOOOOOoOOOOOoOOOOOoOOOOOoo..    ",
"     ..ooOOOOoOOOOOOoOOOOoOOOOOoOOOOOoOOOOoo..     ",
"      .ooooooooooooooooooooooooooooooooooooo.      ",
"      ..ooOOOOoOOOOOoOOOOoOOOOoOOOOOoOOOOoo..      ",
"       ..ooOOOoOOOOOoOOOOoOOOOoOOOOOoOOOoo..       ",
"        .ooOOOOoOOOOOoOOOoOOOoOOOOOoOOOOoo.        ",
"        ..ooooooooooooooooooooooooooooooo..        ",
"         .ooooooooooooooooooooooooooooooo.         ",
"         .................................         "};
