/* XPM */
static char * default_icon [] = {
"40 40 2 1",
" 	c black",
".	c gray100",
"                                        ",
" ...................................... ",
" .                                    . ",
" . .................................. . ",
" . .                                . . ",
" . . .............................. . . ",
" . . .                            . . . ",
" . . . .......................... . . . ",
" . . . .                        . . . . ",
" . . . . ...................... . . . . ",
" . . . . .                    . . . . . ",
" . . . . . .................. . . . . . ",
" . . . . . .                . . . . . . ",
" . . . . . . .............. . . . . . . ",
" . . . . . . .            . . . . . . . ",
" . . . . . . . .......... . . . . . . . ",
" . . . . . . . .        . . . . . . . . ",
" . . . . . . . . ...... . . . . . . . . ",
" . . . . . . . . .    . . . . . . . . . ",
" . . . . . . . . . .. . . . . . . . . . ",
" . . . . . . . . . .. . . . . . . . . . ",
" . . . . . . . . .    . . . . . . . . . ",
" . . . . . . . . ...... . . . . . . . . ",
" . . . . . . . .        . . . . . . . . ",
" . . . . . . . .......... . . . . . . . ",
" . . . . . . .            . . . . . . . ",
" . . . . . . .............. . . . . . . ",
" . . . . . .                . . . . . . ",
" . . . . . .................. . . . . . ",
" . . . . .                    . . . . . ",
" . . . . ...................... . . . . ",
" . . . .                        . . . . ",
" . . . .......................... . . . ",
" . . .                            . . . ",
" . . .............................. . . ",
" . .                                . . ",
" . .................................. . ",
" .                                    . ",
" ...................................... ",
"                                        "};
