/* XPM */
static char * doc [] = {
"31 51 3 1",
" 	s None	c None",
".	c gray100",
"X	c black",
"...............................",
".XXXXXXXXXXXXXXXXXXXXXXXXXXXXX.",
".X...........................X.",
".X...........................X.",
".X...........................X.",
".X...XXXXX.XXXXXXX.XXXXXX....X.",
".X...........................X.",
".X...........................X.",
".X...XXXXXXX.XXXXX.XXXXX.....X.",
".X...........................X.",
".X...........................X.",
".X...XXX.XXXXXXXXXX.XXX......X.",
".X...........................X.",
".X...........................X.",
".X...XXXXXX.XXXX.XXXX.XXXX...X.",
".X...........................X.",
".X...........................X.",
".X...XXX.XXXXXXXXXX..........X.",
".X...........................X.",
".X...........................X.",
".X...XXX.X.XXXXXX............X.",
".X...........................X.",
".X...........................X.",
".X...........................X.",
".X...........................X.",
".X...........................X.",
".X...........................X.",
".X...........................X.",
".X...........................X.",
".X...........................X.",
".X...........................X.",
".X...........................X.",
".X...........................X.",
".X...........................X.",
".X...........................X.",
".X...........................X.",
".X...........................X.",
".X...XXX.XXXXXXXX.XXXXXXXX...X.",
".X...........................X.",
".X...........................X.",
".X...........................X.",
".X...XXXXX.XX.XXXXX..XXXXXXXXX.",
".X...................X......X. ",
".X...................X.....X.  ",
".X...XXXXX.XXXXXXXXX.X....X.   ",
".X...................X...X.    ",
".X...................X..X.     ",
".X...................X.X.      ",
".X...................XX.       ",
".XXXXXXXXXXXXXXXXXXXXX.        ",
"......................         "};
