/* XPM */
static char * musicdoc [] = {
"31 51 5 1",
" 	s None	c None",
".	c gray100",
"X	c black",
"o	m black	g black	c blue",
"O	m black	g black	c red",
"...............................",
".XXXXXXXXXXXXXXXXXXXXXXXXXXXXX.",
".X...........................X.",
".X...........................X.",
".X...........................X.",
".X...XXXXX.XXXXXXX.XXXXXX....X.",
".X...........................X.",
".X...........................X.",
".X...XXXXXXX.XXXXX.XXXXX.....X.",
".X...........................X.",
".X...........................X.",
".X...XXX.XXXXXXXXXX.XXX......X.",
".X...........................X.",
".X...........................X.",
".X...XXXXXX.XXXX.XXXX.XXXX...X.",
".X...........................X.",
".X...........................X.",
".X...XXX.XXXXXXXXXX..........X.",
".X...........................X.",
".X.....................XXX...X.",
".X.................XXXXXXX...X.",
".X............XXXXXXXXXXXX...X.",
".X........XXXXXXXXXXXXX.XX...X.",
".X........XXXXXXXXX.....XX...X.",
".X........XXXX..........XX...X.",
".X........XX............XX...X.",
".X........XX............XX...X.",
".X........XX............XX...X.",
".X........XX............XX...X.",
".X........XX...........oXX...X.",
".X........XX........oooooo...X.",
".X........XX.......ooooooo...X.",
".X.......OXX.......oooooo....X.",
".X....OOOOOO.......oooooo....X.",
".X...OOOOOOO........oooo.....X.",
".X...OOOOOO..................X.",
".X...OOOOOO..................X.",
".X....OOOO...................X.",
".X...........................X.",
".X...........................X.",
".X...........................X.",
".X...XXXXX.XX.XXXXX..XXXXXXXXX.",
".X...................X......X. ",
".X...................X.....X.  ",
".X...XXXXX.XXXXXXXXX.X....X.   ",
".X...................X...X.    ",
".X...................X..X.     ",
".X...................X.X.      ",
".X...................XX.       ",
".XXXXXXXXXXXXXXXXXXXXX.        ",
"......................         "};
