/* XPM */
static char * music [] = {
"51 51 5 1",
" 	s None	c None",
".	c gray100",
"X	c black",
"o	c blue",
"O	c red",
"                                         ......    ",
"                                    ......XXXX.    ",
"                                .....XXXXXXXXX.    ",
"                           ......XXXXXXXXXXXXX.    ",
"                      ......XXXXXXXXXXXXXXXXXX.    ",
"                  .....XXXXXXXXXXXXXXXXXXX.XXX.    ",
"             ......XXXXXXXXXXXXXXXXXX......XXX.    ",
"          ....XXXXXXXXXXXXXXXXXXX.....   ..XXX.    ",
"          .XXXXXXXXXXXXXXXXX......  ......XXXX.    ",
"          .XXXXXXXXXXXX......   .....XXXXXXXXX.    ",
"          .XXXXXXXX.....   ......XXXXXXXXXXXXX.    ",
"          .XXX......  ......XXXXXXXXXXXXXXXXXX.    ",
"          .XXX.   .....XXXXXXXXXXXXXXXXXXX.XXX.    ",
"          .XXX.....XXXXXXXXXXXXXXXXXX......XXX.    ",
"          .XXXXXXXXXXXXXXXXXXXXXX.....    .XXX.    ",
"          .XXXXXXXXXXXXXXXXX......        .XXX.    ",
"          .XXXXXXXXXXXX......             .XXX.    ",
"          .XXXXXXXX.....                  .XXX.    ",
"          .XXX......                      .XXX.    ",
"          .XXX.                           .XXX.    ",
"          .XXX.                           .XXX.    ",
"          .XXX.                           .XXX.    ",
"          .XXX.                           .XXX.    ",
"          .XXX.                           .XXX.    ",
"          .XXX.                           .XXX.    ",
"          .XXX.                           .XXX.    ",
"          .XXX.                           .XXX.    ",
"          .XXX.                           .XXX.    ",
"          .XXX.                           .XXX.    ",
"          .XXX.                           .XXX.    ",
"          .XXX.                           .XXX.    ",
"          .XXX.                         ...XXX.    ",
"          .XXX.                      ....oooXX.    ",
"          .XXX.                    ...oooooooX.    ",
"          .XXX.                   ..oooooooooo.    ",
"          .XXX.                  ..ooooooooooo.    ",
"          .XXX.                  .ooooooooooo..    ",
"          .XXX.                  .ooooooooooo.     ",
"        ...XXX.                  .oooooooooo..     ",
"     ....OOOXX.                  .oooooooooo.      ",
"   ...OOOOOOOX.                  .ooooooooo..      ",
"  ..OOOOOOOOOO.                  ..ooooooo..       ",
" ..OOOOOOOOOOO.                   ..ooooo..        ",
" .OOOOOOOOOOO..                    .......         ",
" .OOOOOOOOOOO.                                     ",
" .OOOOOOOOOO..                                     ",
" .OOOOOOOOOO.                                      ",
" .OOOOOOOOO..                                      ",
" ..OOOOOOO..                                       ",
"  ..OOOOO..                                        ",
"   .......                                         "};
