/* XPM */
static char * flip_forward [] = {
"50 50 3 1",
" 	s None	c None",
".	c gray100",
"X	c black",
"                                                  ",
"                                                 .",
"                                                ..",
"                                               ...",
"                                              ....",
"                                             .....",
"                                            ......",
"                                           .......",
"                                          ........",
"                                         .........",
"                                        ..........",
"                                       ...........",
"                                      ............",
"                                     .............",
"                                    ..............",
"                                   ...............",
"                                  ................",
"                                 .................",
"                                ..................",
"                               ...................",
"                              ....................",
"                             .....................",
"                            ......................",
"                           .......................",
"                          ........................",
"                         .........................",
"                        ..........................",
"                       ...........................",
"                      ...........XXX..............",
"                     ............XXX..............",
"                    .............XXX..............",
"                   ..............XXX..............",
"                  ...............XXX..............",
"                 ................XXX..............",
"                ...........XXXXXXXXXXXXXXX........",
"               ............XXXXXXXXXXXXXXX........",
"              .............XXXXXXXXXXXXXXX........",
"             ....................XXX..............",
"            .....................XXX..............",
"           ......................XXX..............",
"          .......................XXX..............",
"         ........................XXX..............",
"        .........................XXX..............",
"       ...........................................",
"      ............................................",
"     .............................................",
"    ..............................................",
"   ...............................................",
"  ................................................",
" ................................................."};
